<mxfile host="Electron" modified="2023-07-07T11:54:55.596Z" agent="Mozilla/5.0 (Macintosh; Intel Mac OS X 10_15_7) AppleWebKit/537.36 (KHTML, like Gecko) draw.io/21.6.1 Chrome/112.0.5615.204 Electron/24.6.1 Safari/537.36" etag="37qHV7Hn-g-wy5V2_mUG" version="21.6.1" type="device">
  <diagram name="Page-1" id="lq90KdHZCtTla-hWbB_M">
    <mxGraphModel dx="954" dy="-511" grid="1" gridSize="10" guides="1" tooltips="1" connect="1" arrows="1" fold="1" page="1" pageScale="1" pageWidth="850" pageHeight="1100" math="0" shadow="0">
      <root>
        <mxCell id="0" />
        <mxCell id="1" parent="0" />
        <mxCell id="Xg35h1GgVY0VSvPYJ7P0-1" value="" style="endArrow=none;html=1;rounded=0;strokeWidth=4;" edge="1" parent="1">
          <mxGeometry width="50" height="50" relative="1" as="geometry">
            <mxPoint x="375" y="2320" as="sourcePoint" />
            <mxPoint x="875" y="2320" as="targetPoint" />
          </mxGeometry>
        </mxCell>
        <mxCell id="Xg35h1GgVY0VSvPYJ7P0-2" value="" style="endArrow=none;html=1;rounded=0;strokeWidth=4;" edge="1" parent="1">
          <mxGeometry width="50" height="50" relative="1" as="geometry">
            <mxPoint x="370" y="2850" as="sourcePoint" />
            <mxPoint x="875" y="2850" as="targetPoint" />
          </mxGeometry>
        </mxCell>
        <mxCell id="Xg35h1GgVY0VSvPYJ7P0-3" value="" style="group" vertex="1" connectable="0" parent="1">
          <mxGeometry x="375" y="2340" width="500" height="490" as="geometry" />
        </mxCell>
        <mxCell id="Xg35h1GgVY0VSvPYJ7P0-4" value="" style="group" vertex="1" connectable="0" parent="Xg35h1GgVY0VSvPYJ7P0-3">
          <mxGeometry width="500" height="490" as="geometry" />
        </mxCell>
        <mxCell id="Xg35h1GgVY0VSvPYJ7P0-5" value="" style="rounded=0;whiteSpace=wrap;html=1;" vertex="1" parent="Xg35h1GgVY0VSvPYJ7P0-4">
          <mxGeometry width="500" height="490" as="geometry" />
        </mxCell>
        <mxCell id="Xg35h1GgVY0VSvPYJ7P0-6" value="" style="endArrow=none;html=1;rounded=0;entryX=1;entryY=0;entryDx=0;entryDy=0;exitX=0;exitY=1;exitDx=0;exitDy=0;" edge="1" parent="Xg35h1GgVY0VSvPYJ7P0-4" source="Xg35h1GgVY0VSvPYJ7P0-5" target="Xg35h1GgVY0VSvPYJ7P0-5">
          <mxGeometry width="50" height="50" relative="1" as="geometry">
            <mxPoint x="830" y="6620" as="sourcePoint" />
            <mxPoint x="880" y="6570" as="targetPoint" />
          </mxGeometry>
        </mxCell>
        <mxCell id="Xg35h1GgVY0VSvPYJ7P0-7" value="" style="endArrow=none;html=1;rounded=0;entryX=0;entryY=0;entryDx=0;entryDy=0;exitX=1;exitY=1;exitDx=0;exitDy=0;" edge="1" parent="Xg35h1GgVY0VSvPYJ7P0-4" source="Xg35h1GgVY0VSvPYJ7P0-5" target="Xg35h1GgVY0VSvPYJ7P0-5">
          <mxGeometry width="50" height="50" relative="1" as="geometry">
            <mxPoint x="1280" y="6830" as="sourcePoint" />
            <mxPoint x="330" y="6340" as="targetPoint" />
          </mxGeometry>
        </mxCell>
        <mxCell id="Xg35h1GgVY0VSvPYJ7P0-8" value="" style="endArrow=none;html=1;rounded=0;entryX=0;entryY=0;entryDx=0;entryDy=0;exitX=1;exitY=1;exitDx=0;exitDy=0;" edge="1" parent="Xg35h1GgVY0VSvPYJ7P0-4" source="Xg35h1GgVY0VSvPYJ7P0-5" target="Xg35h1GgVY0VSvPYJ7P0-5">
          <mxGeometry width="50" height="50" relative="1" as="geometry">
            <mxPoint x="1199" y="6313" as="sourcePoint" />
            <mxPoint x="700" y="5830" as="targetPoint" />
          </mxGeometry>
        </mxCell>
        <mxCell id="Xg35h1GgVY0VSvPYJ7P0-9" value="" style="group" vertex="1" connectable="0" parent="Xg35h1GgVY0VSvPYJ7P0-3">
          <mxGeometry x="380" y="370" width="100" height="100" as="geometry" />
        </mxCell>
        <mxCell id="Xg35h1GgVY0VSvPYJ7P0-10" value="" style="whiteSpace=wrap;html=1;aspect=fixed;" vertex="1" parent="Xg35h1GgVY0VSvPYJ7P0-9">
          <mxGeometry width="100" height="100" as="geometry" />
        </mxCell>
        <mxCell id="Xg35h1GgVY0VSvPYJ7P0-11" value="" style="endArrow=none;html=1;rounded=0;exitX=0;exitY=1;exitDx=0;exitDy=0;entryX=1;entryY=0;entryDx=0;entryDy=0;" edge="1" parent="Xg35h1GgVY0VSvPYJ7P0-9" source="Xg35h1GgVY0VSvPYJ7P0-10" target="Xg35h1GgVY0VSvPYJ7P0-10">
          <mxGeometry width="50" height="50" relative="1" as="geometry">
            <mxPoint x="295" y="50" as="sourcePoint" />
            <mxPoint x="345" as="targetPoint" />
            <Array as="points" />
          </mxGeometry>
        </mxCell>
        <mxCell id="Xg35h1GgVY0VSvPYJ7P0-12" value="" style="endArrow=none;html=1;rounded=0;exitX=1;exitY=1;exitDx=0;exitDy=0;entryX=0;entryY=0;entryDx=0;entryDy=0;" edge="1" parent="Xg35h1GgVY0VSvPYJ7P0-9" source="Xg35h1GgVY0VSvPYJ7P0-10" target="Xg35h1GgVY0VSvPYJ7P0-10">
          <mxGeometry width="50" height="50" relative="1" as="geometry">
            <mxPoint x="195" y="50" as="sourcePoint" />
            <mxPoint x="245" as="targetPoint" />
          </mxGeometry>
        </mxCell>
        <mxCell id="Xg35h1GgVY0VSvPYJ7P0-13" value="" style="group" vertex="1" connectable="0" parent="1">
          <mxGeometry x="375" y="3250" width="500" height="820" as="geometry" />
        </mxCell>
        <mxCell id="Xg35h1GgVY0VSvPYJ7P0-14" value="&lt;font style=&quot;&quot;&gt;&lt;u style=&quot;border-color: var(--border-color); font-size: 17px;&quot;&gt;What we Offer 1&lt;br style=&quot;border-color: var(--border-color);&quot;&gt;&lt;/u&gt;&lt;span style=&quot;font-size: 17px;&quot;&gt;Overview of our development strategy for success&lt;/span&gt;&lt;br&gt;&lt;font style=&quot;font-size: 20px;&quot;&gt;&lt;b&gt;More texts below&lt;/b&gt;&lt;/font&gt;&lt;br&gt;&lt;/font&gt;" style="rounded=0;whiteSpace=wrap;html=1;" vertex="1" parent="Xg35h1GgVY0VSvPYJ7P0-13">
          <mxGeometry width="500" height="260" as="geometry" />
        </mxCell>
        <mxCell id="Xg35h1GgVY0VSvPYJ7P0-15" value="&lt;font style=&quot;&quot;&gt;&lt;span style=&quot;font-size: 17px;&quot;&gt;&lt;u&gt;What we Offer 3&lt;br&gt;&lt;/u&gt;Overview of our development strategy for success&lt;/span&gt;&lt;br&gt;&lt;font style=&quot;font-size: 20px;&quot;&gt;&lt;b&gt;More texts below&lt;/b&gt;&lt;/font&gt;&lt;br&gt;&lt;/font&gt;" style="rounded=0;whiteSpace=wrap;html=1;" vertex="1" parent="Xg35h1GgVY0VSvPYJ7P0-13">
          <mxGeometry y="560" width="500" height="260" as="geometry" />
        </mxCell>
        <mxCell id="Xg35h1GgVY0VSvPYJ7P0-16" value="&lt;font style=&quot;&quot;&gt;&lt;u style=&quot;border-color: var(--border-color); font-size: 17px;&quot;&gt;What we Offer 2&lt;br style=&quot;border-color: var(--border-color);&quot;&gt;&lt;/u&gt;&lt;span style=&quot;font-size: 17px;&quot;&gt;Overview of our development strategy for success&lt;/span&gt;&lt;br&gt;&lt;font style=&quot;font-size: 20px;&quot;&gt;&lt;b&gt;More texts below&lt;/b&gt;&lt;/font&gt;&lt;br&gt;&lt;/font&gt;" style="rounded=0;whiteSpace=wrap;html=1;" vertex="1" parent="Xg35h1GgVY0VSvPYJ7P0-13">
          <mxGeometry y="280" width="500" height="260" as="geometry" />
        </mxCell>
        <mxCell id="Xg35h1GgVY0VSvPYJ7P0-17" value="&lt;font style=&quot;font-size: 22px;&quot;&gt;&lt;b style=&quot;border-color: var(--border-color); text-align: left;&quot;&gt;What is the latest technology in software development?&lt;/b&gt;&lt;br style=&quot;border-color: var(--border-color); text-align: left;&quot;&gt;With the development of AI technologies, machine learning has also significantly impacted software development. It has a superior application in speech recognition, personal assistance, smart navigation, and other such applications.&lt;/font&gt;" style="rounded=0;whiteSpace=wrap;html=1;" vertex="1" parent="1">
          <mxGeometry x="375" y="2870" width="500" height="360" as="geometry" />
        </mxCell>
        <mxCell id="Xg35h1GgVY0VSvPYJ7P0-18" value="" style="endArrow=none;html=1;rounded=0;strokeWidth=4;" edge="1" parent="1">
          <mxGeometry width="50" height="50" relative="1" as="geometry">
            <mxPoint x="372.5" y="4090" as="sourcePoint" />
            <mxPoint x="877.5" y="4090" as="targetPoint" />
          </mxGeometry>
        </mxCell>
        <mxCell id="Xg35h1GgVY0VSvPYJ7P0-19" value="" style="group" vertex="1" connectable="0" parent="1">
          <mxGeometry x="590" y="1850" width="80" height="80" as="geometry" />
        </mxCell>
        <mxCell id="Xg35h1GgVY0VSvPYJ7P0-20" value="" style="ellipse;whiteSpace=wrap;html=1;aspect=fixed;" vertex="1" parent="Xg35h1GgVY0VSvPYJ7P0-19">
          <mxGeometry width="80" height="80" as="geometry" />
        </mxCell>
        <mxCell id="Xg35h1GgVY0VSvPYJ7P0-21" value="" style="endArrow=none;html=1;rounded=0;" edge="1" parent="Xg35h1GgVY0VSvPYJ7P0-19">
          <mxGeometry width="50" height="50" relative="1" as="geometry">
            <mxPoint x="10" y="70" as="sourcePoint" />
            <mxPoint x="70" y="10" as="targetPoint" />
          </mxGeometry>
        </mxCell>
        <mxCell id="Xg35h1GgVY0VSvPYJ7P0-22" value="" style="endArrow=none;html=1;rounded=0;" edge="1" parent="Xg35h1GgVY0VSvPYJ7P0-19">
          <mxGeometry width="50" height="50" relative="1" as="geometry">
            <mxPoint x="70" y="70" as="sourcePoint" />
            <mxPoint x="10" y="10" as="targetPoint" />
          </mxGeometry>
        </mxCell>
        <mxCell id="Xg35h1GgVY0VSvPYJ7P0-23" value="" style="endArrow=none;html=1;rounded=0;strokeWidth=4;" edge="1" parent="1">
          <mxGeometry width="50" height="50" relative="1" as="geometry">
            <mxPoint x="380" y="1942.5" as="sourcePoint" />
            <mxPoint x="880" y="1942.5" as="targetPoint" />
          </mxGeometry>
        </mxCell>
        <mxCell id="Xg35h1GgVY0VSvPYJ7P0-24" value="" style="rounded=1;whiteSpace=wrap;html=1;imageWidth=26;imageHeight=26;" vertex="1" parent="1">
          <mxGeometry x="380" y="1840" width="500" height="460" as="geometry" />
        </mxCell>
        <mxCell id="Xg35h1GgVY0VSvPYJ7P0-25" value="" style="rounded=1;whiteSpace=wrap;html=1;" vertex="1" parent="1">
          <mxGeometry x="380" y="1980" width="500" height="290" as="geometry" />
        </mxCell>
        <mxCell id="Xg35h1GgVY0VSvPYJ7P0-26" value="" style="endArrow=none;html=1;rounded=0;exitX=0.969;exitY=0.962;exitDx=0;exitDy=0;exitPerimeter=0;entryX=0.025;entryY=0.048;entryDx=0;entryDy=0;entryPerimeter=0;" edge="1" parent="1" source="Xg35h1GgVY0VSvPYJ7P0-25" target="Xg35h1GgVY0VSvPYJ7P0-25">
          <mxGeometry width="50" height="50" relative="1" as="geometry">
            <mxPoint x="919" y="2622.5" as="sourcePoint" />
            <mxPoint x="450" y="2353.5" as="targetPoint" />
            <Array as="points" />
          </mxGeometry>
        </mxCell>
        <mxCell id="Xg35h1GgVY0VSvPYJ7P0-27" value="" style="endArrow=none;html=1;rounded=0;exitX=0.969;exitY=0.962;exitDx=0;exitDy=0;exitPerimeter=0;entryX=0.964;entryY=0.024;entryDx=0;entryDy=0;entryPerimeter=0;" edge="1" parent="1">
          <mxGeometry width="50" height="50" relative="1" as="geometry">
            <mxPoint x="391.5" y="2256.5" as="sourcePoint" />
            <mxPoint x="868.5" y="1998.5" as="targetPoint" />
          </mxGeometry>
        </mxCell>
        <mxCell id="Xg35h1GgVY0VSvPYJ7P0-28" value="" style="group" connectable="0" vertex="1" parent="1">
          <mxGeometry x="380" y="2015" width="320" height="220" as="geometry" />
        </mxCell>
        <mxCell id="Xg35h1GgVY0VSvPYJ7P0-29" value="" style="rounded=1;whiteSpace=wrap;html=1;" vertex="1" parent="Xg35h1GgVY0VSvPYJ7P0-28">
          <mxGeometry width="320" height="220" as="geometry" />
        </mxCell>
        <mxCell id="Xg35h1GgVY0VSvPYJ7P0-30" value="" style="group" connectable="0" vertex="1" parent="Xg35h1GgVY0VSvPYJ7P0-28">
          <mxGeometry x="71.11111111111111" y="20" width="177.77777777777777" height="150" as="geometry" />
        </mxCell>
        <mxCell id="Xg35h1GgVY0VSvPYJ7P0-31" value="&lt;font face=&quot;Comic Sans MS&quot;&gt;&lt;b&gt;RainMaykr Soft-solution&lt;/b&gt;&lt;/font&gt;" style="rounded=0;whiteSpace=wrap;html=1;" vertex="1" parent="Xg35h1GgVY0VSvPYJ7P0-30">
          <mxGeometry width="177.77777777777777" height="30" as="geometry" />
        </mxCell>
        <mxCell id="Xg35h1GgVY0VSvPYJ7P0-32" value="&lt;b&gt;WDD130 -A7&lt;/b&gt;" style="rounded=0;whiteSpace=wrap;html=1;" vertex="1" parent="Xg35h1GgVY0VSvPYJ7P0-30">
          <mxGeometry x="31.11111111111111" y="110" width="106.66666666666666" height="40" as="geometry" />
        </mxCell>
        <mxCell id="Xg35h1GgVY0VSvPYJ7P0-33" value="&lt;b&gt;Dominic Abah&lt;/b&gt;" style="rounded=0;whiteSpace=wrap;html=1;" vertex="1" parent="Xg35h1GgVY0VSvPYJ7P0-30">
          <mxGeometry x="31.11111111111111" y="50" width="106.66666666666666" height="35" as="geometry" />
        </mxCell>
        <mxCell id="Xg35h1GgVY0VSvPYJ7P0-34" value="Contact Us" style="rounded=0;whiteSpace=wrap;html=1;" vertex="1" parent="1">
          <mxGeometry x="745" y="2015" width="120" height="30" as="geometry" />
        </mxCell>
        <mxCell id="Xg35h1GgVY0VSvPYJ7P0-35" value="Software Maintenance" style="rounded=0;whiteSpace=wrap;html=1;" vertex="1" parent="1">
          <mxGeometry x="745" y="2205" width="120" height="30" as="geometry" />
        </mxCell>
        <mxCell id="Xg35h1GgVY0VSvPYJ7P0-36" value="Home" style="rounded=0;whiteSpace=wrap;html=1;" vertex="1" parent="1">
          <mxGeometry x="745" y="2110" width="120" height="30" as="geometry" />
        </mxCell>
        <mxCell id="Xg35h1GgVY0VSvPYJ7P0-37" value="" style="group" vertex="1" connectable="0" parent="1">
          <mxGeometry x="375" y="4110" width="500" height="550" as="geometry" />
        </mxCell>
        <mxCell id="Xg35h1GgVY0VSvPYJ7P0-38" value="" style="rounded=1;whiteSpace=wrap;html=1;" vertex="1" parent="Xg35h1GgVY0VSvPYJ7P0-37">
          <mxGeometry width="500" height="550" as="geometry" />
        </mxCell>
        <mxCell id="Xg35h1GgVY0VSvPYJ7P0-39" value="" style="group" vertex="1" connectable="0" parent="Xg35h1GgVY0VSvPYJ7P0-37">
          <mxGeometry x="35" y="30" width="430" height="360" as="geometry" />
        </mxCell>
        <mxCell id="Xg35h1GgVY0VSvPYJ7P0-40" value="" style="rounded=0;whiteSpace=wrap;html=1;" vertex="1" parent="Xg35h1GgVY0VSvPYJ7P0-39">
          <mxGeometry y="150" width="430" height="210" as="geometry" />
        </mxCell>
        <mxCell id="Xg35h1GgVY0VSvPYJ7P0-41" value="Home" style="rounded=0;whiteSpace=wrap;html=1;fontStyle=1;fontSize=17;" vertex="1" parent="Xg35h1GgVY0VSvPYJ7P0-39">
          <mxGeometry width="430" height="40" as="geometry" />
        </mxCell>
        <mxCell id="Xg35h1GgVY0VSvPYJ7P0-42" value="Site Plan" style="rounded=0;whiteSpace=wrap;html=1;fontStyle=1;fontSize=17;" vertex="1" parent="Xg35h1GgVY0VSvPYJ7P0-39">
          <mxGeometry y="50" width="430" height="40" as="geometry" />
        </mxCell>
        <mxCell id="Xg35h1GgVY0VSvPYJ7P0-43" value="Software Maintenance" style="rounded=0;whiteSpace=wrap;html=1;fontStyle=1;fontSize=17;" vertex="1" parent="Xg35h1GgVY0VSvPYJ7P0-39">
          <mxGeometry y="100" width="430" height="40" as="geometry" />
        </mxCell>
        <mxCell id="Xg35h1GgVY0VSvPYJ7P0-44" value="" style="endArrow=none;html=1;rounded=0;exitX=0;exitY=1;exitDx=0;exitDy=0;entryX=1;entryY=0;entryDx=0;entryDy=0;" edge="1" parent="Xg35h1GgVY0VSvPYJ7P0-39" source="Xg35h1GgVY0VSvPYJ7P0-40" target="Xg35h1GgVY0VSvPYJ7P0-40">
          <mxGeometry width="50" height="50" relative="1" as="geometry">
            <mxPoint x="555" y="3690" as="sourcePoint" />
            <mxPoint x="605" y="3640" as="targetPoint" />
          </mxGeometry>
        </mxCell>
        <mxCell id="Xg35h1GgVY0VSvPYJ7P0-45" value="" style="endArrow=none;html=1;rounded=0;exitX=0;exitY=1;exitDx=0;exitDy=0;entryX=1;entryY=0;entryDx=0;entryDy=0;" edge="1" parent="Xg35h1GgVY0VSvPYJ7P0-39">
          <mxGeometry width="50" height="50" relative="1" as="geometry">
            <mxPoint x="430" y="360" as="sourcePoint" />
            <mxPoint y="150" as="targetPoint" />
          </mxGeometry>
        </mxCell>
        <mxCell id="Xg35h1GgVY0VSvPYJ7P0-46" value="Facebook" style="rounded=0;whiteSpace=wrap;html=1;" vertex="1" parent="Xg35h1GgVY0VSvPYJ7P0-37">
          <mxGeometry x="35" y="410" width="120" height="40" as="geometry" />
        </mxCell>
        <mxCell id="Xg35h1GgVY0VSvPYJ7P0-47" value="Instagram" style="rounded=0;whiteSpace=wrap;html=1;" vertex="1" parent="Xg35h1GgVY0VSvPYJ7P0-37">
          <mxGeometry x="345" y="410" width="120" height="40" as="geometry" />
        </mxCell>
        <mxCell id="Xg35h1GgVY0VSvPYJ7P0-48" value="Twitter" style="rounded=0;whiteSpace=wrap;html=1;" vertex="1" parent="Xg35h1GgVY0VSvPYJ7P0-37">
          <mxGeometry x="190" y="410" width="120" height="40" as="geometry" />
        </mxCell>
        <mxCell id="Xg35h1GgVY0VSvPYJ7P0-49" value="Copy Right &amp;amp; Date" style="rounded=0;whiteSpace=wrap;html=1;flipH=0;" vertex="1" parent="Xg35h1GgVY0VSvPYJ7P0-37">
          <mxGeometry x="115" y="470" width="120" height="60" as="geometry" />
        </mxCell>
        <mxCell id="Xg35h1GgVY0VSvPYJ7P0-50" value="" style="group" vertex="1" connectable="0" parent="Xg35h1GgVY0VSvPYJ7P0-37">
          <mxGeometry x="275" y="470" width="90" height="60" as="geometry" />
        </mxCell>
        <mxCell id="Xg35h1GgVY0VSvPYJ7P0-51" value="&lt;b&gt;&lt;font style=&quot;font-size: 48px;&quot;&gt;US&lt;/font&gt;&lt;/b&gt;" style="rounded=0;whiteSpace=wrap;html=1;" vertex="1" parent="Xg35h1GgVY0VSvPYJ7P0-50">
          <mxGeometry x="20" width="70" height="60" as="geometry" />
        </mxCell>
        <mxCell id="Xg35h1GgVY0VSvPYJ7P0-52" value="&lt;font color=&quot;#e6e6e6&quot; style=&quot;font-size: 9px; background-color: rgb(102, 102, 102);&quot;&gt;CONTACT&lt;/font&gt;" style="rounded=0;whiteSpace=wrap;html=1;rotation=-90;" vertex="1" parent="Xg35h1GgVY0VSvPYJ7P0-37">
          <mxGeometry x="345" y="490" width="60" height="20" as="geometry" />
        </mxCell>
      </root>
    </mxGraphModel>
  </diagram>
</mxfile>
